<svg viewBox="0 0 900 900" xmlns="http://www.w3.org/2000/svg"><rect x="0" y="150" width="350" height="600" fill="#1e1e18" /><rect x="50" y="250" width="200" height="400" fill="#301e12" /><rect x="150" y="250" width="50" height="400" fill="#6f4630" /><rect x="50" y="250" width="50" height="400" fill="#6f4630" /><rect x="50" y="350" width="200" height="100" fill="#432718" /><rect x="50" y="550" width="200" height="100" fill="#432718" /><rect x="100" y="550" width="50" height="100" fill="#6f4630" /><rect x="100" y="350" width="50" height="100" fill="#6f4630" /><rect x="200" y="350" width="50" height="100" fill="#6f4630" /><rect x="200" y="550" width="50" height="100" fill="#6f4630" /><rect x="300" y="150" width="600" height="600" fill="#292820" /><rect x="400" y="250" width="400" height="400" fill="#412818" /><rect x="600" y="250" width="100" height="350" fill="#945d41" /><rect x="400" y="250" width="100" height="350" fill="#945d41" /><rect x="400" y="350" width="400" height="100" fill="#5a3420" /><rect x="400" y="550" width="400" height="100" fill="#5a3420" /><rect x="500" y="350" width="100" height="100" fill="#945d41" /><rect x="700" y="350" width="100" height="100" fill="#945d41" /><rect x="500" y="550" width="100" height="100" fill="#945d41" /><rect x="700" y="550" width="100" height="100" fill="#945d41" /></svg>