<svg viewBox="0 0 1100 1100" xmlns="http://www.w3.org/2000/svg"><rect x="50" y="550" width="400" height="550" fill="#8594a4" /><rect x="50" y="1000" width="400" height="100" fill="#9097a5" /><rect x="400" y="550" width="500" height="550" fill="#b0c4d9" /><rect x="400" y="1000" width="500" height="100" fill="#bfd0db" /><rect x="50" y="900" width="400" height="100" fill="#687486" /><rect x="250" y="800" width="100" height="200" fill="#687486" /><rect x="250" y="900" width="100" height="100" fill="#c0c0c0" /><rect x="300" y="900" width="50" height="100" fill="#070718" /><rect x="400" y="900" width="500" height="100" fill="#8a9ab1" /><rect x="600" y="950" width="300" height="150" fill="#9097a5" /><rect x="850" y="950" width="200" height="150" fill="#bfd0db" /><rect x="50" y="0" width="350" height="600" fill="#1d1a14" /><rect x="100" y="100" width="200" height="400" fill="#865107" /><rect x="100" y="200" width="300" height="100" fill="#1d1a14" /><rect x="350" y="0" width="600" height="600" fill="#453c2f" /><rect x="450" y="100" width="400" height="400" fill="#a76e1f" /><rect x="350" y="200" width="600" height="100" fill="#453c2f" /><rect x="550" y="200" width="100" height="100" fill="#1d1a14" /><rect x="600" y="200" width="100" height="200" fill="#767676" /><rect x="650" y="200" width="100" height="200" fill="#a5a5a5" /></svg>