<svg viewBox="0 0 950 950" xmlns="http://www.w3.org/2000/svg"><rect x="650" y="150" width="250" height="250" fill="#f9f4f4" /><rect x="650" y="250" width="150" height="150" fill="#b48f83" /><rect x="650" y="200" width="50" height="200" fill="#ab5e19" /><rect x="650" y="150" width="50" height="100" fill="#05040b" /><rect x="250" y="150" width="250" height="250" fill="#f9f4f4" /><rect x="400" y="250" width="100" height="150" fill="#b48f83" /><rect x="250" y="200" width="50" height="200" fill="#ab5e19" /><rect x="250" y="150" width="50" height="100" fill="#05040b" /><rect x="0" y="350" width="300" height="500" fill="#ab5e19" /><rect x="250" y="350" width="700" height="500" fill="#e27c21" /><rect x="100" y="750" width="200" height="100" fill="#bcb8b8" /><rect x="250" y="750" width="200" height="100" fill="#f9f4f4" /><rect x="400" y="700" width="200" height="150" fill="#aea49f" /><rect x="400" y="650" width="200" height="100" fill="#ab5e19" /><rect x="550" y="650" width="400" height="200" fill="#e7d9d3" /><rect x="650" y="650" width="200" height="100" fill="#06040e" /><rect x="750" y="450" width="200" height="150" fill="#ab5e19" /><rect x="750" y="550" width="150" height="100" fill="#f9f4f4" /><rect x="850" y="550" width="100" height="100" fill="#05040b" /><rect x="200" y="450" width="250" height="150" fill="#ab5e19" /><rect x="300" y="550" width="150" height="100" fill="#f9f4f4" /><rect x="200" y="550" width="150" height="100" fill="#05040b" /><rect x="200" y="550" width="50" height="100" fill="#bcb8b8" /><rect x="200" y="450" width="50" height="100" fill="#814713" /></svg>