<svg viewBox="0 0 1250 1250" xmlns="http://www.w3.org/2000/svg"><rect x="250" y="250" width="600" height="650" fill="#1d1a14" /><rect x="350" y="350" width="400" height="400" fill="#693f05" /><rect x="50" y="250" width="250" height="600" fill="#1d1a14" /><rect x="100" y="350" width="100" height="400" fill="#865107" /><rect x="450" y="200" width="200" height="100" fill="#767676" /><rect x="600" y="200" width="100" height="100" fill="#a5a5a5" /><rect x="800" y="50" width="100" height="250" fill="#94a2a2" /><rect x="850" y="0" width="100" height="300" fill="#c4d6d6" /><rect x="600" y="0" width="100" height="250" fill="#94a2a2" /><rect x="650" y="0" width="300" height="100" fill="#c4d6d6" /><rect x="500" y="200" width="100" height="700" fill="#9c7a53" /><rect x="550" y="200" width="300" height="700" fill="#ceac6d" /><rect x="600" y="700" width="200" height="100" fill="#7c623e" /><rect x="700" y="500" width="100" height="250" fill="#7c623e" /><rect x="600" y="300" width="200" height="100" fill="#7c623e" /><rect x="650" y="0" width="100" height="300" fill="#c4d6d6" /><rect x="250" y="850" width="350" height="400" fill="#1d1a14" /><rect x="300" y="950" width="200" height="200" fill="#865107" /><rect x="550" y="850" width="600" height="400" fill="#453c2f" /><rect x="650" y="950" width="400" height="200" fill="#a76e1f" /></svg>